<svg xmlns="http://www.w3.org/2000/svg" width="512" height="512" viewBox="0 0 512 512">
  <defs>
    <linearGradient id="gold" x1="0" y1="0" x2="512" y2="512" gradientUnits="userSpaceOnUse">
      <stop offset="0%" stop-color="#F59E0B" />
      <stop offset="100%" stop-color="#D97706" />
    </linearGradient>
    <filter id="shadow" x="-20%" y="-20%" width="140%" height="140%">
      <feDropShadow dx="0" dy="16" stdDeviation="24" flood-color="#F59E0B" flood-opacity="0.4" />
    </filter>
  </defs>
  
  <g filter="url(#shadow)">
    <circle cx="256" cy="256" r="230" fill="url(#gold)" />
  </g>
  
  <g transform="translate(136, 136) scale(10)">
    <path fill="#FFFFFF" d="M19.44 9.03L15.41 5H11v2h3.59l2 2H5c-2.8 0-5 2.2-5 5v5h5c0 1.66 1.34 3 3 3s3-1.34 3-3h4c0 1.66 1.34 3 3 3s3-1.34 3-3h5v-5c0-4.35-3.53-4.96-5.56-4.97zM8 18.5c-1.1 0-2-.9-2-2s.9-2 2-2 2 .9 2 2-.9 2-2 2zm3.12-5.49c-.43.3-1.02.49-1.62.49-1.65 0-3-1.35-3-3s1.35-3 3-3c.53 0 1.02.14 1.45.39.52.29.95.74 1.25 1.27l1.04-1.04c-.66-.9-1.63-1.54-2.74-1.54-2.21 0-4 1.79-4 4s1.79 4 4 4c1.1 0 2.06-.44 2.77-1.16l-1.15-1.41zm6.88 5.49c-1.1 0-2-.9-2-2s.9-2 2-2 2 .9 2 2-.9 2-2 2zm1-5.5h-5.2l-1.38-1.5h6.58v1.5z"/>
  </g>
</svg>
